<?xml version="1.0" encoding="UTF-8"?>
<svg width="95px" height="88px" viewBox="0 0 95 88" version="1.1" xmlns="http://www.w3.org/2000/svg" xmlns:xlink="http://www.w3.org/1999/xlink">
    <!-- Generator: Sketch 53.2 (72643) - https://sketchapp.com -->
    <title>Artboard</title>
    <desc>Created with Sketch.</desc>
    <g id="Artboard" stroke="none" stroke-width="1" fill="none" fill-rule="evenodd">
        <path d="M82.9132571,71.1033552 L65.9810355,34.8237275 C65.9116411,34.6857821 65.8422468,34.6168095 65.7034581,34.5478368 L58.6252343,30.4784489 L55.8494602,24.4778261 C55.7800659,24.3398807 55.7106715,24.270908 55.5718828,24.2019354 L40.0275483,15.0975421 C39.8887596,15.0285694 39.6805765,14.9595967 39.5417878,15.0285694 C39.4029991,15.0975421 39.2642104,15.2354874 39.1254217,15.3734328 L15.045582,71.1033552 C14.9761876,71.3102732 14.9761876,71.5171913 15.1149763,71.7241093 C15.253765,71.9310273 15.4619481,72 15.6701311,72 L82.4274966,72 C82.6356797,72 82.8438627,71.8620546 82.9826514,71.7241093 C82.9826514,71.5861639 83.0520458,71.3102732 82.9132571,71.1033552 Z M16,71 L39.6170213,17 L46,29.8041237 L32.4539007,56.3865979 C32.4539007,56.4561856 32.3829787,56.5257732 32.3829787,56.5953608 L30.0425532,71 L16,71 Z M33.25,56.8587933 L46.75,30.1707317 C46.8203125,29.9627728 46.8203125,29.7548139 46.75,29.6161746 L40.4921875,17 L54.484375,25.0410783 L76,71 L31,71 L33.25,56.8587933 Z M78.0764331,71 L60,33 L65.3949045,36.0755396 L82,71 L78.0764331,71 Z" id="Shape" fill="#000000" fill-rule="nonzero"></path>
    </g>
</svg>