<?xml version="1.0" encoding="UTF-8"?>
<svg width="95px" height="88px" viewBox="0 0 95 88" version="1.1" xmlns="http://www.w3.org/2000/svg" xmlns:xlink="http://www.w3.org/1999/xlink">
    <!-- Generator: Sketch 53.2 (72643) - https://sketchapp.com -->
    <title>Artboard</title>
    <desc>Created with Sketch.</desc>
    <g id="Artboard" stroke="none" stroke-width="1" fill="none" fill-rule="evenodd">
        <g id="Group-2" transform="translate(15.000000, 9.000000)" fill="#000000" fill-rule="nonzero">
            <path d="M6.552,53.7921635 C6.746,53.7921635 6.943,53.7351635 7.116,53.6171635 C7.572,53.3041635 7.688,52.6821635 7.376,52.2251635 C3.86,47.0921635 2.002,41.0771635 2.002,34.8291635 C2.002,17.8271635 15.834,3.99516352 32.836,3.99516352 C37.881,3.99516352 42.772,5.22816352 47.176,7.54916352 L42.127,7.66916352 C41.574,7.68316352 41.139,8.14116352 41.15,8.69216352 C41.164,9.23716352 41.608,9.66916352 42.15,9.66916352 C42.158,9.66916352 42.166,9.66916352 42.173,9.66916352 L50.905,9.46016352 C51.261,9.45116352 51.587,9.25316352 51.759,8.93916352 C51.93,8.62616352 51.921,8.24416352 51.735,7.93916352 L47.188,0.48016352 C46.9,0.0081635196 46.284,-0.14183648 45.814,0.14716352 C45.342,0.43416352 45.194,1.04916352 45.481,1.52116352 L48.063,5.75716352 C43.383,3.30016352 38.189,1.99416352 32.834,1.99416352 C14.73,1.99416352 1.42108547e-14,16.7231635 1.42108547e-14,34.8281635 C1.42108547e-14,41.4791635 1.979,47.8881635 5.724,53.3561635 C5.92,53.6401635 6.233,53.7921635 6.552,53.7921635 Z" id="Path"></path>
            <path d="M58.584,16.0401635 C58.127,16.3531635 58.012,16.9751635 58.322,17.4301635 C61.838,22.5661635 63.697,28.5821635 63.697,34.8291635 C63.697,51.8311635 49.865,65.6631635 32.863,65.6631635 C27.818,65.6631635 22.926,64.4311635 18.522,62.1091635 L23.572,61.9891635 C24.124,61.9751635 24.561,61.5161635 24.548,60.9661635 C24.535,60.4131635 24.064,59.9761635 23.525,59.9891635 L14.793,60.1981635 C14.436,60.2071635 14.11,60.4051635 13.939,60.7191635 C13.768,61.0321635 13.777,61.4131635 13.963,61.7191635 L18.509,69.1781635 C18.697,69.4871635 19.027,69.6571635 19.364,69.6571635 C19.541,69.6571635 19.721,69.6101635 19.884,69.5111635 C20.356,69.2241635 20.505,68.6091635 20.217,68.1381635 L17.635,63.9021635 C22.314,66.3591635 27.508,67.6651635 32.864,67.6651635 C50.968,67.6651635 65.697,52.9361635 65.697,34.8311635 C65.697,28.1791635 63.718,21.7711635 59.973,16.3031635 C59.663,15.8461635 59.039,15.7271635 58.584,16.0401635 Z" id="Path"></path>
        </g>
        <path d="M47.9278746,27.9865565 C41.298504,27.9865565 35.9278746,35.3788832 35.9278746,44.4865565 C35.9278746,53.5942297 41.298504,60.9865565 47.9278746,60.9865565 C54.5572453,60.9865565 59.9278746,53.5942297 59.9278746,44.4865565 C59.9278746,35.3788832 54.5572453,27.9865565 47.9278746,27.9865565 Z M36.8289297,44.5952905 C36.8289297,35.9931963 41.8219367,29.0141387 47.9897689,29.0141387 L48.7869717,29.0141387 C48.6462481,29.8741105 48.2530321,30.6768885 47.6541045,31.3269659 C45.8598259,33.3143442 45.8598259,36.2780693 47.6541045,38.2654476 C48.2415171,39.03639 48.8289297,39.7667565 48.8289297,41.2274895 C48.8289297,42.6882224 48.2415171,43.4185889 47.6541045,44.1895313 C45.8598259,46.1769096 45.8598259,49.1406347 47.6541045,51.128013 C48.2415171,51.8989554 48.8289297,52.6293219 48.8289297,54.0900549 C48.8289297,55.5507879 48.2415171,56.2811544 47.6541045,57.0520968 C46.9096581,57.882861 46.4545775,58.9192018 46.3534052,60.0141387 C40.9827759,58.9185889 36.8289297,52.4264423 36.8289297,44.5952905 Z M47.8659804,59.9589743 L47.0268195,59.9589743 C47.1132236,58.9921545 47.5260419,58.0796522 48.2016447,57.3621156 C50.0144667,55.3814989 50.0144667,52.4042507 48.2016447,50.423634 C47.6142321,49.6526915 47.0268195,48.9223251 47.0268195,47.4615921 C47.0268195,46.0008591 47.6142321,45.2704926 48.2016447,44.4995502 C49.9959234,42.5121719 49.9959234,39.5484468 48.2016447,37.5610685 C47.6142321,36.7901261 47.0268195,36.0597596 47.0268195,34.5990266 C47.0268195,33.1382936 47.6142321,32.4079271 48.2016447,31.6369847 C48.8905137,30.8825912 49.3418364,29.9533627 49.502344,28.9589743 C54.8729734,30.054524 59.0268195,36.5466706 59.0268195,44.3778224 C59.0268195,52.9799167 54.0338125,59.9589743 47.8659804,59.9589743 Z" id="Shape" stroke="#000000" fill="#000000" fill-rule="nonzero" transform="translate(47.927875, 44.486556) rotate(-11.000000) translate(-47.927875, -44.486556) "></path>
    </g>
</svg>