<?xml version="1.0" encoding="UTF-8"?>
<svg width="94px" height="88px" viewBox="0 0 94 88" version="1.1" xmlns="http://www.w3.org/2000/svg" xmlns:xlink="http://www.w3.org/1999/xlink">
    <!-- Generator: Sketch 53.2 (72643) - https://sketchapp.com -->
    <title>Artboard</title>
    <desc>Created with Sketch.</desc>
    <g id="Artboard" stroke="none" stroke-width="1" fill="none" fill-rule="evenodd">
        <path d="M79.2792492,34.3938264 C74.422839,30.723322 68.3317482,30.8745098 63.9939039,32.3107941 C62.4711312,27.917948 60.5121047,24.2390443 58.1826741,23.634293 C56.5940517,23.2227262 51.5483239,23.1387329 46.2062726,23.0463404 C44.0414661,23.0463404 41.8601971,22.9707465 39.8929394,22.9119512 C38.3025083,22.2656259 36.5996397,21.9569645 34.8883675,22.0048243 C30.3941303,22.3743945 27.0357992,30.8997078 26.0233611,36.980818 C23.1718827,36.2376054 20.2069565,36.06081 17.290054,36.4600599 C12.0632396,37.1824017 9.7914274,40.2313562 8.79545175,42.6503613 C7.73362647,45.2625509 7.8159385,48.0931229 8.56497804,49.109441 C12.2443261,54.0482432 39.6542345,65.1773468 53.2933391,65.1773468 L53.6884368,65.1773468 C55.5816137,66.454044 58.2979109,67 61.3434563,67 C66.7577737,66.8737858 72.085801,65.5889721 76.9827434,63.2287038 C82.5634995,60.4989236 85.7325129,57.0719997 85.9300618,53.5862804 C86.5720957,42.331187 82.6705051,36.9136234 79.2792492,34.3938264 Z M34.6140089,23.0022443 C36.0526281,22.9729029 37.4829091,23.2315169 38.8237173,23.7634159 C38.9411113,23.8561354 39.0824996,23.9119781 39.2305727,23.9241077 L39.2305727,23.9241077 C39.9944646,24.1947465 40.7749627,24.4992152 41.5720673,24.8205988 C44.162657,25.8439518 46.8528848,26.9095921 49.6261443,27.0871989 C53.3791782,27.3324653 55.0149031,32.423858 55.6542474,35.4431723 C55.741376,35.8542139 56.1391439,36.1154848 56.5426868,36.0267372 C56.9462298,35.9379896 57.2027343,35.5328303 57.1156057,35.1217887 C55.8618267,29.2015646 53.2297211,25.8185794 49.7174792,25.573313 C47.6533837,25.3562836 45.6311965,24.8349326 43.7142857,24.0255973 L45.848201,24.0255973 C50.913136,24.1101719 56.1524377,24.1947465 57.5805834,24.5668749 C61.7321695,25.6494302 65.6595699,43.0041441 66,48.4169204 C64.8873749,50.5143712 55.8452204,54.1595378 43.7225889,50.3113921 C42.3950623,48.082776 40.8240587,46.0144372 39.0395997,44.1459016 C35.58153,40.8943834 31.4746585,38.4421709 27,36.9570581 C27.9382585,31.1552385 31.1681925,23.2813405 34.6140089,23.0022443 Z M10.2547855,47.4516945 C10.0177825,47.1309369 9.67453681,44.9193972 10.6715838,42.4715098 C11.4888355,40.395026 13.4420669,37.7952008 17.936951,37.1621265 C18.8694651,37.0429323 19.8087456,36.9893492 20.7482967,37.0017476 C29.7380649,37.0017476 36.6356689,42.9104414 38.7278331,44.9109562 C40.4083845,46.7202052 41.8936039,48.7127203 43.1573371,50.8534139 C43.1820195,50.9161616 43.21808,50.9734618 43.2635798,51.0222337 L44.2361093,52.5669351 C46.4917238,56.1712383 49.0006864,60.163827 52,63 C38.0249967,62.2656338 13.2295815,51.5286932 10.2547855,47.4516945 Z M83.935186,52.8653221 C83.771524,55.7737965 80.8337914,58.8183398 75.8911995,61.3696332 C68.7964525,64.8478964 58.3384517,66.4807241 54.0014091,63.2831032 L54.0014091,63.2831032 C50.4908596,60.7318098 47.5694931,56.0204215 45,51.878822 C47.9576239,52.702888 51.0048452,53.1287529 54.0668739,53.1459644 C61.169804,53.1459644 66.2760579,50.73074 67.1598326,48.4856019 C67.2007124,48.3804948 67.217521,48.2669503 67.2089312,48.1539338 C66.6333336,42.9574559 65.5755177,37.8310074 64.0502549,32.8461738 C67.8635792,31.5875358 73.5262838,31.374928 77.8960588,34.7426352 C82.2658338,38.1103424 84.4098058,44.3780196 83.935186,52.8653221 Z" id="Shape" fill="#000000" fill-rule="nonzero"></path>
    </g>
</svg>