<?xml version="1.0" encoding="UTF-8"?>
<svg width="111px" height="103px" viewBox="0 0 111 103" version="1.1" xmlns="http://www.w3.org/2000/svg" xmlns:xlink="http://www.w3.org/1999/xlink">
    <!-- Generator: Sketch 53.2 (72643) - https://sketchapp.com -->
    <title>Artboard</title>
    <desc>Created with Sketch.</desc>
    <g id="Artboard" stroke="none" stroke-width="1" fill="none" fill-rule="evenodd">
        <g id="Group-2" transform="translate(18.000000, 17.000000)" fill="#000000" fill-rule="nonzero" stroke="#FFFFFF">
            <path d="M4.26110294,49.9245079 C6.6177435,52.1787983 9.57469837,53.6009081 12.5872211,53.9285443 C13.0299454,53.9764699 13.4662891,54 13.8953476,54 C16.4596798,54 18.7443536,53.1469126 20.4259798,51.5383203 C22.3881788,49.6613407 23.2763511,46.998375 22.9247257,44.0400031 C22.5822047,41.1583158 21.0955278,38.3297831 18.7388966,36.0754927 C16.3822653,33.8212023 13.4253011,32.3990926 10.4118642,32.0714564 C7.316442,31.7368423 4.53620929,32.5847097 2.57401966,34.4616804 C0.61183004,36.338651 -0.276351548,39.0016257 0.0752737731,41.9591231 C0.417785473,44.8416848 1.90446237,47.6702265 4.26110294,49.9245079 Z M17.4198282,37.3372732 C19.4794972,39.3074897 20.7757862,41.7587116 21.0709294,44.241298 C21.2483419,45.7347028 21.0456501,47.1259834 20.4964635,48.3221885 C18.5804949,46.6520004 16.9878127,46.1877167 15.5733265,45.788018 C14.1230855,45.3784682 12.7530107,44.9915652 10.945678,43.2636004 C9.13925946,41.5347611 8.73479006,40.2241894 8.30573161,38.8360675 C7.90901392,37.5510961 7.4660565,36.1167796 5.92768289,34.4060809 C6.90536826,33.9938007 7.98825671,33.7837434 9.12285121,33.7837434 C11.9094644,33.7837434 14.9812024,35.0045582 17.4198282,37.3372732 Z M3.89307869,35.723452 C4.02744164,35.5949245 4.17023724,35.4781576 4.31393768,35.3625863 C5.7427706,36.8728735 6.12651281,38.0775644 6.51662616,39.3414686 C6.97028299,40.8106295 7.48405986,42.4758653 9.62661896,44.5253719 C11.7691781,46.5748785 13.5100196,47.0663507 15.0449697,47.5002961 C16.445557,47.8955779 17.7744199,48.2817671 19.4899727,49.8616005 C19.3663092,50.0028166 19.2440169,50.1453443 19.1069208,50.2765487 C17.5546576,51.7605308 15.3237327,52.42801 12.7976553,52.1552683 C10.2023442,51.8729343 7.63983095,50.6329528 5.58017129,48.6627364 C1.38613334,44.6499822 0.629124464,38.8456509 3.89307869,35.723452 Z" id="Shape"></path>
            <path d="M36,48 C30.4856719,48 26,53.6072726 26,60.5000046 C26,67.3927366 30.4856719,73 36,73 C41.5143281,73 46,67.3927274 46,60.4999954 C46,53.6072634 41.5143281,48 36,48 Z M27.8223882,60.4999954 C27.8223882,54.6257027 31.4911929,49.8474327 36,49.8474327 C36.1862025,49.8474327 36.3683958,49.8677823 36.5514729,49.8837996 C36.4470318,51.9866411 35.8422723,53.135436 35.2000354,54.3334374 C34.4516807,55.7262331 33.6045527,57.304863 33.6045527,60.3051457 C33.6045527,63.3054283 34.4516807,64.8840675 35.2000354,66.2768632 C35.8807611,67.5466377 36.5200003,68.7599268 36.5646032,71.1152952 C36.377289,71.1320884 36.1906491,71.1525581 36,71.1525581 C31.4911929,71.1525581 27.8223882,66.374288 27.8223882,60.4999954 Z M38.3714191,70.6922217 C38.2529639,68.1310113 37.4889185,66.6768251 36.7999646,65.3946358 C36.0943268,64.0785181 35.4269409,62.8354576 35.4269409,60.3051457 C35.4269409,57.7748338 36.0943177,56.5317825 36.7999646,55.2156556 C37.4548854,53.9966765 38.1854444,52.635278 38.3576236,50.3031412 C41.7203217,51.6251245 44.1776118,55.6936904 44.1776118,60.4999861 C44.1776118,65.299862 41.7271101,69.3646499 38.3714191,70.6922217 Z" id="Shape"></path>
            <path d="M56.6271334,38.0284932 C51.8274213,40.7110139 50.5544454,47.8138748 53.7889721,53.8637568 C53.7889721,53.8637568 53.7889721,53.8637568 53.789858,53.8637568 C56.1822066,58.3373349 60.3789772,61 64.345343,61 C65.7427961,61 67.112,60.6688565 68.3629099,59.9704802 C70.7234837,58.6513299 72.3072006,56.252129 72.8227459,53.215902 C73.3259339,50.2563812 72.7494788,47.0315761 71.1992994,44.1352165 C67.9638777,38.0871455 61.4294942,35.3486796 56.6271334,38.0284932 Z M55.3753376,52.9777078 L55.3762235,52.9777078 C52.6192843,47.8219963 53.5691618,41.8433971 57.4940262,39.650819 C57.6559098,39.5603089 57.8239676,39.4895898 57.9907056,39.414639 C58.8868419,41.3108696 58.8997597,42.6124278 58.9029597,43.9764174 C58.9064943,45.5626537 58.9100198,47.3600216 60.3180674,49.9929171 C61.7269919,52.6267179 63.2056671,53.6002926 64.5104267,54.4592699 C65.6997579,55.2420675 66.8257567,55.9966108 67.9709468,58.0423364 C67.8155718,58.1483041 67.6610917,58.2559535 67.496008,58.3481544 C63.5720205,60.5434397 58.1331628,58.1325138 55.3753376,52.9777078 Z M71.0412757,52.8992091 C70.7810759,54.4324846 70.196232,55.7582965 69.3450051,56.793628 C68.0393596,54.6017337 66.6910194,53.6965589 65.4894303,52.9055289 C64.2570609,52.094366 63.0926613,51.3283196 61.904433,49.1068681 C60.7170815,46.886322 60.7144328,45.4706191 60.7109073,43.972814 C60.7078157,42.58458 60.7046157,41.0339804 59.7601439,38.9036119 C63.3089461,38.4271404 67.3571848,40.8046377 69.6138107,45.021284 C70.9671228,47.5531086 71.4747221,50.3502268 71.0412757,52.8992091 Z" id="Shape"></path>
            <path d="M40.9398076,20.0882153 C38.0532739,20.4600293 35.2322619,21.9727546 32.994844,24.3482082 C30.7565583,26.7236617 29.3595879,29.6900184 29.0599272,32.6991037 C28.7532795,35.7891036 29.6304241,38.5572793 31.5314841,40.4963697 C33.1372491,42.1345535 35.2969069,43 37.7142948,43 C38.1589818,43 38.6124092,42.9709091 39.0728146,42.9118151 C41.9593483,42.5400012 44.7803603,41.0272758 47.0177782,38.6518223 C51.6900558,33.6909209 52.3461586,26.4463815 48.4802703,22.5036607 C46.5800781,20.5636765 43.9014712,19.7082187 40.9398076,20.0882153 Z M30.8395519,32.8909266 C31.0981497,30.2981991 32.3168947,27.7272922 34.2721148,25.6518423 C36.2273438,23.5754801 38.6735562,22.2563929 41.159087,21.9363933 C41.5434948,21.8863943 41.9209066,21.8618462 42.2904637,21.8618462 C44.2386969,21.8618462 45.9641615,22.5436618 47.2274494,23.8327551 C47.3580635,23.9659401 47.4720734,24.1110501 47.5896886,24.2536093 C46.0907229,25.6919551 44.8881437,26.0861667 43.6254015,26.4891195 C42.1576758,26.957301 40.4933671,27.4873041 38.4595192,29.6463867 C36.4247946,31.8063817 35.9486529,33.5482034 35.5284247,35.0854675 C35.1455467,36.4866608 34.7704251,37.8173378 33.2037548,39.5451773 C33.0610188,39.4231912 32.9170929,39.3027875 32.784296,39.1672846 C31.280741,37.633651 30.5896855,35.4045641 30.8395519,32.8909266 Z M45.7405074,37.3481974 C43.7852784,39.4245596 41.339066,40.7436468 38.8535352,41.0636464 C37.3563229,41.2576848 35.9600055,41.0697811 34.7562275,40.5339877 C36.4121179,38.6042156 36.8624857,37.0104082 37.2495147,35.5945624 C37.6461518,34.1427464 38.0218192,32.7709326 39.73679,30.9500209 C41.4526375,29.1291184 42.7622397,28.710936 44.1495931,28.2691178 C45.4349512,27.8593414 46.8701396,27.402126 48.5717896,25.8470723 C50.0332887,29.2035538 48.9979044,33.8895115 45.7405074,37.3481974 Z" id="Shape"></path>
            <path d="M9.62321169,23.60866 C11.2601795,25.2201123 13.4205937,26 15.7186639,26 C18.9443768,26 22.4401492,24.4629103 25.1380342,21.5320053 C29.7560908,16.5126521 30.311985,9.277883 26.3760671,5.40295951 C24.4409914,3.49859784 21.7404668,2.6860697 18.774282,3.10955936 C15.8834974,3.52489589 13.0733831,5.07649034 10.8621156,7.47961429 C6.24404996,12.4989674 5.68816471,19.7337273 9.62321169,23.60866 Z M23.8368745,20.2515352 C20.6208044,23.7460377 16.1469759,24.9850084 12.8620778,23.5939231 C14.4942242,21.6455828 14.9236315,20.0495453 15.2916628,18.6319205 C15.6695614,17.1782566 16.0264147,15.8043969 17.7221277,13.9616945 C19.4178408,12.1189921 20.7268925,11.6828084 22.1122242,11.2203174 C23.3958492,10.7925747 24.830059,10.3140467 26.5155816,8.73716641 C28.0300219,12.062663 27.0572182,16.7516468 23.8368745,20.2515352 Z M12.1632753,8.76006578 C14.0957204,6.65982447 16.5314466,5.30682118 19.0215367,4.94952237 C19.4502886,4.88785381 19.8711485,4.85702417 20.2823656,4.85702417 C22.1867534,4.85702417 23.8798448,5.50994393 25.1380342,6.74869183 C25.2708688,6.8794485 25.387264,7.02233273 25.5071609,7.16260759 C24.023633,8.62034808 22.822537,9.03194233 21.5616002,9.45288763 C20.0947272,9.9416767 18.4314529,10.4966566 16.420968,12.6812337 C14.4104832,14.8658108 13.9571845,16.6105734 13.5573698,18.1503839 C13.1927323,19.5529839 12.8357712,20.8854093 11.2887845,22.6322148 C11.1440086,22.5128521 10.9971409,22.3967209 10.8612357,22.2628999 C7.6434148,19.0944115 8.22735738,13.0376318 12.1632753,8.76006578 Z" id="Shape"></path>
            <path d="M60.3374577,20 C66.1539316,20 71.0980703,16.7114721 71.8897792,11.9664874 C72.3327414,9.30897886 71.4314189,6.6143478 69.350682,4.37927753 C67.3233837,2.20076886 64.4056436,0.716031257 61.1346116,0.196370382 C54.3054023,-0.888019656 48.0115433,2.62851939 47.1102208,8.03456898 C46.6672586,10.6920775 47.5685811,13.3867086 49.649318,15.6217788 C51.6766163,17.7994006 54.5943564,19.2841473 57.8653884,19.8037991 C58.7005921,19.9363614 59.5267239,20 60.3374577,20 Z M58.6462352,1.80925395 C59.3627628,1.80925395 60.0965065,1.86581556 60.8374854,1.9833551 C63.6954422,2.43673482 66.2309217,3.71997736 67.9774102,5.59622987 C69.6695417,7.41504293 70.4087118,9.57410346 70.0581471,11.6766024 C70.0278055,11.858767 69.9777527,12.0338726 69.9321244,12.2105168 C67.8651994,11.777635 66.8260739,11.0044967 65.7435835,10.1856747 C64.4853516,9.23384695 63.0586411,8.15476012 60.0847261,7.68282819 C57.1135381,7.21354787 55.4078173,7.79418668 53.9050072,8.30677057 C52.5342306,8.77583369 51.2273094,9.21258883 48.8847782,8.88321025 C48.898822,8.69679225 48.910825,8.5102566 48.9418437,8.32444494 C49.585008,4.46676249 53.7310838,1.80925395 58.6462352,1.80925395 Z M51.0225898,14.4048175 C49.9727043,13.2763456 49.2913974,12.016696 49.0078604,10.7210733 C51.5641736,11.0076913 53.134466,10.4870983 54.518266,10.015103 C55.9404498,9.53079085 57.2811169,9.07388168 59.7875998,9.46981291 C62.2949919,9.86750887 63.4182499,10.7168198 64.606727,11.6165023 C65.7086968,12.4495145 66.9383867,13.3792424 69.2209119,13.915365 C67.3598381,17.0042712 62.9220718,18.7711018 58.1625053,18.0167963 C55.3045485,17.5634256 52.769069,16.2801831 51.0225898,14.4048175 Z" id="Shape"></path>
        </g>
    </g>
</svg>