<?xml version="1.0" encoding="UTF-8"?>
<svg width="111px" height="103px" viewBox="0 0 111 103" version="1.1" xmlns="http://www.w3.org/2000/svg" xmlns:xlink="http://www.w3.org/1999/xlink">
    <!-- Generator: Sketch 53.2 (72643) - https://sketchapp.com -->
    <title>Artboard</title>
    <desc>Created with Sketch.</desc>
    <g id="Artboard" stroke="none" stroke-width="1" fill="none" fill-rule="evenodd">
        <g id="Shape-2" transform="translate(19.000000, 15.000000)" fill="#000000" fill-rule="nonzero" stroke="#FFFFFF">
            <path d="M73.075,37.1689235 L45.6918643,37.1689235 C45.9095075,36.7364027 46.0435955,36.2552178 46.0435955,35.738966 L46.0435955,33.869097 C46.0435955,32.9030548 45.6053767,32.0457463 44.9274905,31.457178 C53.105027,29.2051452 59.4213802,23.4082535 62.4664155,14.9987362 C62.5689425,14.7150942 62.5269383,14.3989292 62.353954,14.1523242 C62.1805165,13.9057192 61.898225,13.7584777 61.5965178,13.7584777 L37.925,13.7584777 L37.925,5.96463125 L43.7242042,5.96463125 C44.160055,8.30225425 46.2111593,10.078356 48.6722513,10.078356 C51.4495083,10.078356 53.709163,7.818248 53.709163,5.03963125 C53.709163,2.2610145 51.4495082,0 48.6722513,0 C46.2111593,0 44.160055,1.7767215 43.7242042,4.114622 L37,4.114622 C36.4891687,4.114622 36.075,4.52834675 36.075,5.039622 L36.075,13.7584685 L12.4034915,13.7584685 C12.1017842,13.7584685 11.8194927,13.90571 11.6460552,14.152315 C11.473071,14.39892 11.4310667,14.715085 11.5335937,14.998727 C14.578629,23.4082442 20.8949822,29.205136 29.0725188,31.4571688 C28.3946325,32.045737 27.9564137,32.9030455 27.9564137,33.8690878 L27.9564137,35.7389567 C27.9564137,36.2552085 28.0905017,36.7363935 28.308145,37.1689143 L0.925,37.1689143 C0.41416875,37.1689143 0,37.582639 0,38.0939143 L0,46.4767268 C0,46.988002 0.41416875,47.4017268 0.925,47.4017268 L2.93127875,47.4017268 L2.93127875,63.7671875 L0.925,63.7671875 C0.41416875,63.7671875 0,64.1809123 0,64.6921875 L0,73.075 C0,73.5862752 0.41416875,74 0.925,74 L73.075,74 C73.5858312,74 74,73.5862752 74,73.075 L74,64.6921875 C74,64.1809123 73.5858312,63.7671875 73.075,63.7671875 L71.0687212,63.7671875 L71.0687212,47.401736 L73.075,47.401736 C73.5858312,47.401736 74,46.9880112 74,46.476736 L74,38.0939235 C74,37.582639 73.5858312,37.1689235 73.075,37.1689235 Z M48.6722512,1.85 C50.4296587,1.85 51.859163,3.280864 51.859163,5.039622 C51.859163,6.79748275 50.4296587,8.22834675 48.6722512,8.22834675 C46.9148437,8.22834675 45.4853395,6.79748275 45.4853395,5.039622 C45.4853395,3.280864 46.9148437,1.85 48.6722512,1.85 Z M13.7544077,15.6084685 L60.2455922,15.6084685 C56.2709875,25.195409 47.8692032,30.6614005 37,30.6614005 C26.1307967,30.6614005 17.7290125,25.195409 13.7544077,15.6084685 Z M42.8354457,32.5114005 C43.584298,32.5114005 44.1935863,33.1202355 44.1935863,33.8690877 L44.1935863,35.7389567 C44.1935863,36.487809 43.584298,37.096644 42.8354457,37.096644 L31.1645542,37.096644 C30.415702,37.096644 29.8064137,36.487809 29.8064137,35.7389567 L29.8064137,33.8690877 C29.8064137,33.1202355 30.415702,32.5114005 31.1645542,32.5114005 L42.8354457,32.5114005 Z M72.15,72.15 L1.85,72.15 L1.85,65.6171875 L72.15,65.6171875 L72.15,72.15 Z M69.2187305,63.7671875 L4.78127875,63.7671875 L4.78127875,47.401736 L69.2187305,47.401736 L69.2187305,63.7671875 L69.2187305,63.7671875 Z M72.15,45.551736 L1.85,45.551736 L1.85,39.0189235 L72.15,39.0189235 L72.15,45.551736 Z" id="Shape"></path>
        </g>
    </g>
</svg>