<?xml version="1.0" encoding="UTF-8"?>
<svg width="95px" height="88px" viewBox="0 0 95 88" version="1.1" xmlns="http://www.w3.org/2000/svg" xmlns:xlink="http://www.w3.org/1999/xlink">
    <!-- Generator: Sketch 53.2 (72643) - https://sketchapp.com -->
    <title>Artboard</title>
    <desc>Created with Sketch.</desc>
    <g id="Artboard" stroke="none" stroke-width="1" fill="none" fill-rule="evenodd">
        <path d="M35.5427842,15.001561 C35.1510572,15.001561 34.8413916,15.3137529 34.8413916,15.7039928 L34.8413916,58.9769142 L31.1099215,58.9769142 C27.1833621,58.9769142 24,62.1862471 24,66.1448406 L24,71.2975682 C24,71.6878081 24.3096656,72 24.7013925,72 L46.6504882,72 C47.0422151,72 47.3472357,71.69093 47.3472357,71.2975682 C47.3472357,70.9042064 47.0406668,70.5951364 46.6504882,70.5951364 L25.3981401,70.5951364 L25.3981401,66.1417187 C25.3981401,62.9792146 27.9730093,60.3833388 31.1099215,60.3833388 L39.9756468,60.3833388 C42.0457611,60.3833388 43.9563977,61.5165955 44.9736491,63.3319915 L44.9782941,63.3397963 L44.9829391,63.3444791 C45.1749317,63.695695 45.5805936,63.814328 45.9320641,63.6176471 C46.2773412,63.425649 46.3965624,63.0104338 46.2030214,62.656096 C44.9457792,60.375534 42.5675476,58.9613046 39.9880334,58.9613046 L36.2534666,58.9613046 L36.2534666,16.4033027 L68.4354611,16.4033027 L57.0289298,26.3559809 C56.888032,26.4761748 56.7997773,26.6603681 56.7997773,26.8757805 C56.7997773,27.0693395 56.8973219,27.28163 57.0444131,27.4111896 L68.4354611,37.3482583 L39.0249735,37.3482583 C38.6332466,37.3482583 38.328226,37.6573283 38.328226,38.0506901 C38.328226,38.4440519 38.6347949,38.7531219 39.0249735,38.7531219 L70.3027445,38.7531219 C70.5845402,38.7531219 70.8446592,38.5673677 70.9576872,38.287956 C71.0521352,38.0210319 70.9778154,37.7166448 70.7672429,37.5308906 L58.5540327,26.8789024 L70.7625979,16.2300361 C70.9809121,16.04116 71.0567802,15.7274072 70.9561389,15.4526783 C70.8554975,15.1795104 70.6062168,15 70.2980995,15 L35.5427842,15.001561 Z" id="Path" fill="#000000" fill-rule="nonzero"></path>
    </g>
</svg>