<?xml version="1.0" encoding="UTF-8"?>
<svg width="111px" height="103px" viewBox="0 0 111 103" version="1.1" xmlns="http://www.w3.org/2000/svg" xmlns:xlink="http://www.w3.org/1999/xlink">
    <!-- Generator: Sketch 53.2 (72643) - https://sketchapp.com -->
    <title>Artboard</title>
    <desc>Created with Sketch.</desc>
    <g id="Artboard" stroke="none" stroke-width="1" fill="none" fill-rule="evenodd">
        <g id="Group" transform="translate(21.000000, 13.000000)" fill="#000000" fill-rule="nonzero" stroke="#FFFFFF">
            <path d="M73.9559092,33.0140812 C70.3386133,30.4135766 64.5956943,31.4984158 62.1656973,32.1268481 C62.3548661,28.3587186 62.2632779,25.964621 62.2612804,25.9199718 C62.2391912,25.4055386 61.815265,25 61.2996918,25 L0.987027695,25 C0.471454531,25 0.0475283368,25.4055386 0.0254390749,25.9199718 C0.0216792456,26.004459 -0.314359807,34.4602205 1.57262867,44.8610655 C3.32238164,54.5071579 7.39761878,67.8678714 16.8725099,76.7399672 C17.0511041,76.9070641 17.2865665,77 17.5309584,77 L44.7557611,77 C45.000153,77 45.2356155,76.9070641 45.4142096,76.7399672 C50.0016125,72.4444379 53.3144171,67.0953415 55.7191524,61.6264374 C56.6061897,61.1785966 57.4850611,60.7393217 58.343958,60.3118986 C68.7672783,55.1210983 77,51.0215912 77,39.9298286 C77,36.7930062 75.9759034,34.4663224 73.9559092,33.0140812 Z M1.93028698,26.9225533 L60.3564325,26.9225533 C60.3758194,28.9359304 60.3144277,34.0619572 59.4330301,40.4676719 C45.2840825,40.4271297 37.9784057,38.9945435 30.9236419,37.605961 C23.8098951,36.2053509 16.4411227,34.761617 2.22960845,34.7088124 C1.94086161,31.0688218 1.91718619,28.2838535 1.93028698,26.9225533 Z M44.3722536,75.0774466 L17.9144659,75.0774466 C6.96070923,64.5942267 3.48399761,47.6182821 2.40279777,36.6324806 C16.3124644,36.6964327 23.5576307,38.1153485 30.551414,39.4919033 C37.6489463,40.8893453 45.0013867,42.3294415 59.1492181,42.3884651 C57.479715,52.9476061 53.5498207,66.2938277 44.3722536,75.0774466 Z M57.4848262,58.5911758 C57.275448,58.6954354 57.0562588,58.8063835 56.8450595,58.9116404 C58.7456775,53.9752992 59.951247,49.0653015 60.7140908,44.8610655 C61.4349299,40.8867637 61.829952,37.2018306 62.0443825,34.1540718 C63.640098,33.6950833 69.5654886,32.2235978 72.8340558,34.5761558 C74.3417666,35.6618164 75.0749427,37.4130486 75.0749427,39.9298286 C75.0749427,49.8317296 67.6966533,53.5059845 57.4848262,58.5911758 Z" id="Shape"></path>
            <path d="M29.6778603,9.92297203 L45.3911172,9.92297203 C46.32114,9.92297203 47.0780153,10.6686049 47.0780153,11.5848133 C47.0780153,12.5010217 46.32114,13.2466546 45.3911172,13.2466546 L39.1282439,13.2466546 C36.6774318,13.2466546 34.6831851,15.2112792 34.6831851,17.6261496 L34.6831851,18.0532821 C34.6831851,18.5761034 35.1134731,19 35.6441774,19 C36.1748817,19 36.6051697,18.5761034 36.6051697,18.0532821 L36.6051697,17.6261496 C36.6051697,16.255535 37.7369635,15.1400904 39.1282439,15.1400904 L45.3911172,15.1400904 C47.3811409,15.1400904 49,13.5452775 49,11.5848133 C49,9.62434908 47.3811409,8.02953618 45.3911172,8.02953618 L29.6778603,8.02953618 C28.7098294,8.02953618 27.9219847,7.25339392 27.9219847,6.29974205 C27.9219847,5.34609017 28.7098294,4.56994791 29.6778603,4.56994791 L33.7297005,4.56994791 C35.7577322,4.56994791 37.4075608,2.94462551 37.4075608,0.946717923 C37.4075608,0.423896642 36.9772727,0 36.4465684,0 C35.9158642,0 35.4855761,0.423896642 35.4855761,0.946717923 C35.4855761,1.9003698 34.6977313,2.67651206 33.7297005,2.67651206 L29.6778603,2.67651206 C27.6498286,2.67651206 26,4.30183446 26,6.29974205 C26,8.29764963 27.6498286,9.92297203 29.6778603,9.92297203 Z" id="Path"></path>
            <path d="M18.4637945,14.4617759 L22.4204844,14.4617759 C24.4689318,14.4617759 26.1354576,16.2279291 26.1354576,18.3988357 L26.1354576,19.0119963 C26.1354576,19.5576175 26.5528857,20 27.0677288,20 C27.5825719,20 28,19.5576175 28,19.0119963 L28,18.3988357 C28,15.1381339 25.4972525,12.4857684 22.4204844,12.4857684 L18.4637945,12.4857684 C17.0303365,12.4857684 15.8645424,11.2502813 15.8645424,9.73112918 C15.8645424,8.21197701 17.0303366,6.97600746 18.4637945,6.97600746 C18.9786376,6.97600746 19.3960657,6.53362494 19.3960657,5.98800373 C19.3960657,5.44238252 18.9786376,5 18.4637945,5 C16.0024711,5 14,7.12218182 14,9.73112918 C14,12.3395941 16.0024711,14.4617759 18.4637945,14.4617759 Z" id="Path"></path>
        </g>
    </g>
</svg>