<?xml version="1.0" encoding="UTF-8"?>
<svg width="95px" height="88px" viewBox="0 0 95 88" version="1.1" xmlns="http://www.w3.org/2000/svg" xmlns:xlink="http://www.w3.org/1999/xlink">
    <!-- Generator: Sketch 53.2 (72643) - https://sketchapp.com -->
    <title>Artboard</title>
    <desc>Created with Sketch.</desc>
    <g id="Artboard" stroke="none" stroke-width="1" fill="none" fill-rule="evenodd">
        <g id="Group" transform="translate(16.000000, 17.000000)" fill="#000000" fill-rule="nonzero">
            <path d="M49.32,24.86 C45.53,27.38 40.73,29.37 36.1,28.11 C31,26.71 29.27,21.73 30.84,17 C32.94,10.62 38.53,7.27 44.57,5.53 C52.0959595,3.48596526 59.7958355,2.14685639 67.57,1.53 L66.88,0.37 C62.24,8.7 57,19 49.32,24.86 C48.57,25.44 49.32,26.74 50.08,26.15 C57.99,20.06 63.39,9.72 68.18,1.15 C68.3201878,0.915528492 68.3237484,0.623856847 68.1893262,0.386033 C68.0549041,0.148209153 67.8031828,0.000827289867 67.53,0 C62.83,0.45 58.14,1.11 53.53,1.94 C47.35,3.05 40.16,4.16 35.22,8.31 C30.46,12.31 26.22,20.11 30.35,25.98 C35.02,32.57 44.56,29.82 50.08,26.15 C50.88,25.62 50.13,24.32 49.32,24.86 Z" id="Path"></path>
            <path d="M41,17.17 C27.83,24.56 23.24,39.6 26.93,53.78 C27.040457,54.1804064 27.4545936,54.4154569 27.855,54.3049999 C28.2554064,54.194543 28.4904569,53.7804064 28.38,53.38 C24.86,39.87 29.14,25.54 41.75,18.47 C42.59,18 41.83,16.7 40.99,17.17 L41,17.17 Z" id="Path"></path>
            <path d="M1.19,20.9 C4.76,25.28 8.67,29.9 13.27,33.18 C17.55,36.26 26.47,37.63 28.84,31.35 C31.09,25.41 24.15,20.63 19.18,19.75 C13.52,18.75 7.42,19.17 1.72,19.62 C0.72,19.7 0.72,21.2 1.72,21.12 C8.2,20.6 30.35,18.65 27,30.3 C25.46,35.66 18.72,34.91 14.79,32.43 C12.6443634,30.93382 10.6721868,29.2031344 8.91,27.27 C6.58,24.91 4.35,22.42 2.25,19.84 C1.64,19.1 0.58,20.16 1.19,20.9 Z" id="Path"></path>
            <path d="M28.12,31.82 C25.7730837,27.6464501 21.2375944,25.1919958 16.46,25.51 C15.46,25.51 15.46,27.06 16.46,27.01 C20.6993898,26.709383 24.7326733,28.8778568 26.82,32.58 C27.29,33.43 28.58,32.67 28.12,31.82 L28.12,31.82 Z" id="Path"></path>
        </g>
    </g>
</svg>